<svg xmlns="http://www.w3.org/2000/svg" viewBox="0 0 800 400" width="800" height="400">
  <defs>
    <linearGradient id="bg" x1="0%" y1="0%" x2="100%" y2="100%">
      <stop offset="0%" style="stop-color:#0f0f1a"/>
      <stop offset="100%" style="stop-color:#1a0f2e"/>
    </linearGradient>

    <linearGradient id="g1" x1="0%" y1="0%" x2="100%" y2="100%">
      <stop offset="0%" style="stop-color:#ff6b6b"/>
      <stop offset="100%" style="stop-color:#ee5a24"/>
    </linearGradient>
    <linearGradient id="g2" x1="0%" y1="0%" x2="100%" y2="100%">
      <stop offset="0%" style="stop-color:#ffd32a"/>
      <stop offset="100%" style="stop-color:#f9ca24"/>
    </linearGradient>
    <linearGradient id="g3" x1="0%" y1="0%" x2="100%" y2="100%">
      <stop offset="0%" style="stop-color:#0be881"/>
      <stop offset="100%" style="stop-color:#05c46b"/>
    </linearGradient>
    <linearGradient id="g4" x1="0%" y1="0%" x2="100%" y2="100%">
      <stop offset="0%" style="stop-color:#00d2d3"/>
      <stop offset="100%" style="stop-color:#0097a7"/>
    </linearGradient>
    <linearGradient id="g5" x1="0%" y1="0%" x2="100%" y2="100%">
      <stop offset="0%" style="stop-color:#a29bfe"/>
      <stop offset="100%" style="stop-color:#6c5ce7"/>
    </linearGradient>
    <linearGradient id="g6" x1="0%" y1="0%" x2="100%" y2="100%">
      <stop offset="0%" style="stop-color:#fd79a8"/>
      <stop offset="100%" style="stop-color:#e84393"/>
    </linearGradient>

    <filter id="glow" x="-30%" y="-30%" width="160%" height="160%">
      <feGaussianBlur stdDeviation="5" result="blur"/>
      <feMerge><feMergeNode in="blur"/><feMergeNode in="SourceGraphic"/></feMerge>
    </filter>
    <filter id="softglow" x="-50%" y="-50%" width="200%" height="200%">
      <feGaussianBlur stdDeviation="12" result="blur"/>
      <feMerge><feMergeNode in="blur"/><feMergeNode in="SourceGraphic"/></feMerge>
    </filter>

    <radialGradient id="inner-shadow" cx="50%" cy="35%" r="65%">
      <stop offset="0%" style="stop-color:#ffffff;stop-opacity:0.08"/>
      <stop offset="100%" style="stop-color:#000000;stop-opacity:0.45"/>
    </radialGradient>
  </defs>

  <!-- Background -->
  <rect width="800" height="400" fill="url(#bg)"/>

  <!-- Subtle grid -->
  <g opacity="0.05" stroke="#ffffff" stroke-width="0.5">
    <line x1="0" y1="100" x2="800" y2="100"/>
    <line x1="0" y1="200" x2="800" y2="200"/>
    <line x1="0" y1="300" x2="800" y2="300"/>
    <line x1="200" y1="0" x2="200" y2="400"/>
    <line x1="400" y1="0" x2="400" y2="400"/>
    <line x1="600" y1="0" x2="600" y2="400"/>
  </g>

  <!--
    Ring buffer: cx=280, cy=200, r_outer=148, r_inner=90
    6 segments of 55° each, 5° gap between segments.
    Angles measured clockwise from 3 o'clock (SVG convention).

    Segment boundaries (start° → end°):
      1 (red)    :   5° →  60°   (newest)
      2 (yellow) :  65° → 120°
      3 (green)  : 125° → 180°
      4 (cyan)   : 185° → 240°   (fading — outside window)
      5 (purple) : 245° → 300°   (fading)
      6 (pink)   : 305° → 360°   (oldest — head)

    Outer points (r=148):
      5°:   (427, 213)   60°:  (354, 328)
      65°:  (342, 334)   120°: (206, 328)
      125°: (194, 322)   180°: (132, 200)
      185°: (133, 187)   240°: (206, 72)
      245°: (218, 66)    300°: (354, 72)
      305°: (366, 78)    360°: (428, 200)

    Inner points (r=90):
      5°:   (370, 208)   60°:  (325, 278)
      65°:  (318, 282)   120°: (235, 278)
      125°: (228, 274)   180°: (190, 200)
      185°: (191, 192)   240°: (235, 122)
      245°: (242, 118)   300°: (325, 122)
      305°: (332, 126)   360°: (370, 200)  (≈ 356° used)
  -->

  <!-- Floor glow -->
  <ellipse cx="280" cy="356" rx="135" ry="16" fill="#6c5ce7" opacity="0.15" filter="url(#softglow)"/>

  <!-- Segment 1 — red (newest, ~3 o'clock area) -->
  <path d="M 427 213 A 148 148 0 0 1 354 328 L 325 278 A 90 90 0 0 0 370 208 Z"
        fill="url(#g1)" filter="url(#glow)" opacity="0.95"/>
  <path d="M 427 213 A 148 148 0 0 1 354 328 L 325 278 A 90 90 0 0 0 370 208 Z"
        fill="#ffffff" opacity="0.07"/>

  <!-- Segment 2 — yellow (~5 o'clock) -->
  <path d="M 342 334 A 148 148 0 0 1 206 328 L 235 278 A 90 90 0 0 0 318 282 Z"
        fill="url(#g2)" filter="url(#glow)" opacity="0.95"/>
  <path d="M 342 334 A 148 148 0 0 1 206 328 L 235 278 A 90 90 0 0 0 318 282 Z"
        fill="#ffffff" opacity="0.06"/>

  <!-- Segment 3 — green (~7 o'clock) -->
  <path d="M 194 322 A 148 148 0 0 1 132 200 L 190 200 A 90 90 0 0 0 228 274 Z"
        fill="url(#g3)" filter="url(#glow)" opacity="0.95"/>
  <path d="M 194 322 A 148 148 0 0 1 132 200 L 190 200 A 90 90 0 0 0 228 274 Z"
        fill="#ffffff" opacity="0.06"/>

  <!-- Segment 4 — cyan (~9 o'clock, fading) -->
  <path d="M 133 187 A 148 148 0 0 1 206 72 L 235 122 A 90 90 0 0 0 191 192 Z"
        fill="url(#g4)" filter="url(#glow)" opacity="0.50"/>

  <!-- Segment 5 — purple (~11 o'clock, fading) -->
  <path d="M 218 66 A 148 148 0 0 1 354 72 L 325 122 A 90 90 0 0 0 242 118 Z"
        fill="url(#g5)" filter="url(#glow)" opacity="0.35"/>

  <!-- Segment 6 — pink (~1 o'clock, oldest = head) -->
  <path d="M 366 78 A 148 148 0 0 1 428 200 L 370 200 A 90 90 0 0 0 332 126 Z"
        fill="url(#g6)" filter="url(#glow)" opacity="0.25"/>

  <!-- Inner hole -->
  <circle cx="280" cy="200" r="90" fill="#0f0f1a"/>
  <circle cx="280" cy="200" r="90" fill="url(#inner-shadow)"/>

  <!-- Ring outlines -->
  <circle cx="280" cy="200" r="90"  fill="none" stroke="#ffffff" stroke-width="0.5" opacity="0.12"/>
  <circle cx="280" cy="200" r="148" fill="none" stroke="#ffffff" stroke-width="0.5" opacity="0.08"/>

  <!-- Center text -->
  <text x="280" y="193" text-anchor="middle" font-family="monospace" font-size="11" fill="#ffffff" opacity="0.45">ring buffer</text>
  <text x="280" y="212" text-anchor="middle" font-family="monospace" font-size="13" font-weight="bold" fill="#ffffff" opacity="0.85">limit = 6</text>

  <!-- HEAD arrow pointing to pink segment (~1 o'clock) -->
  <g filter="url(#glow)">
    <line x1="366" y1="78" x2="390" y2="55" stroke="#fd79a8" stroke-width="1.5" stroke-dasharray="3,2" opacity="0.85"/>
    <text x="393" y="52" font-family="monospace" font-size="11" fill="#fd79a8" opacity="0.9">head (oldest)</text>
  </g>

  <!-- Expired label -->
  <text x="104" y="140" font-family="monospace" font-size="10" fill="#a29bfe" opacity="0.55" text-anchor="middle">expired</text>
  <text x="104" y="152" font-family="monospace" font-size="10" fill="#a29bfe" opacity="0.55" text-anchor="middle">↓</text>

  <!-- ── Right panel ── -->
  <g transform="translate(490, 60)">

    <text font-family="'SF Mono', 'Fira Code', monospace" font-size="26" font-weight="bold" fill="#ffffff" letter-spacing="-0.5">
      <tspan x="0" dy="0">Sliding Window</tspan>
      <tspan x="0" dy="34">Rate Limiter</tspan>
    </text>

    <line x1="0" y1="82" x2="260" y2="82" stroke="#a29bfe" stroke-width="1" opacity="0.4"/>

    <g font-family="monospace" font-size="13">
      <rect x="0"   y="96" width="90"  height="28" rx="6" fill="#a29bfe" opacity="0.15"/>
      <text x="10"  y="115" fill="#a29bfe" font-weight="bold">O(1)</text>
      <text x="50"  y="115" fill="#ffffff" opacity="0.5">time</text>

      <rect x="104" y="96" width="100" height="28" rx="6" fill="#0be881" opacity="0.15"/>
      <text x="114" y="115" fill="#0be881" font-weight="bold">zero GC</text>

      <rect x="0"   y="134" width="100" height="28" rx="6" fill="#00d2d3" opacity="0.15"/>
      <text x="10"  y="153" fill="#00d2d3" font-weight="bold">Java 21+</text>

      <rect x="114" y="134" width="142" height="28" rx="6" fill="#fd79a8" opacity="0.15"/>
      <text x="124" y="153" fill="#fd79a8" font-weight="bold">single-thread</text>
    </g>

    <rect x="0" y="178" width="285" height="84" rx="8" fill="#ffffff" opacity="0.04"/>
    <rect x="0" y="178" width="285" height="84" rx="8" fill="none" stroke="#ffffff" stroke-width="0.5" opacity="0.1"/>
    <text font-family="monospace" font-size="11.5" fill="#ffffff">
      <tspan x="14" dy="198" fill="#a29bfe">var</tspan>
      <tspan fill="#ffffff"> limiter </tspan>
      <tspan fill="#fd79a8">=</tspan>
      <tspan fill="#ffffff"> new </tspan>
      <tspan fill="#ffd32a">SlidingWindow</tspan>
    </text>
    <text font-family="monospace" font-size="11.5">
      <tspan x="14" dy="218" fill="#ffd32a">  RateLimiter</tspan>
      <tspan fill="#ffffff">(</tspan>
      <tspan fill="#0be881">100</tspan>
      <tspan fill="#ffffff">, </tspan>
      <tspan fill="#0be881">1_000L</tspan>
      <tspan fill="#ffffff">,</tspan>
    </text>
    <text font-family="monospace" font-size="11.5">
      <tspan x="14" dy="238" fill="#00d2d3">    System</tspan>
      <tspan fill="#ffffff">::</tspan>
      <tspan fill="#00d2d3">currentTimeMillis</tspan>
      <tspan fill="#ffffff">);</tspan>
    </text>
    <text font-family="monospace" font-size="11.5">
      <tspan x="14" dy="254" fill="#a29bfe">boolean</tspan>
      <tspan fill="#ffffff"> ok </tspan>
      <tspan fill="#fd79a8">=</tspan>
      <tspan fill="#ffffff"> limiter.</tspan>
      <tspan fill="#ffd32a">tryAcquire</tspan>
      <tspan fill="#ffffff">();</tspan>
    </text>

    <g transform="translate(0, 278)">
      <rect width="285" height="36" rx="8" fill="#6c5ce7" opacity="0.2"/>
      <rect width="285" height="36" rx="8" fill="none" stroke="#6c5ce7" stroke-width="0.8" opacity="0.5"/>
      <text x="14" y="23" font-family="monospace" font-size="11" fill="#a29bfe">⚡ Built by Claude Sonnet 4.6 · claude-sonnet-4-6</text>
    </g>
  </g>
</svg>
